{
  "asset": {
    "version": "2.0",
    "generator": "Biomorphosis / PulseLib player animation"
  },
  "scene": 0,
  "scenes": [
    {
      "nodes": [0, 1]
    }
  ],
  "nodes": [
    {
      "name": "left_arm"
    },
    {
      "name": "right_arm"
    }
  ],
  "buffers": [
    {
      "uri": "data:application/octet-stream;base64,",
      "byteLength": 756
    }
  ],
  "bufferViews": [
    {
      "buffer": 0,
      "byteOffset": 0,
      "byteLength": 84
    },
    {
      "buffer": 0,
      "byteOffset": 84,
      "byteLength": 336
    },
    {
      "buffer": 0,
      "byteOffset": 420,
      "byteLength": 336
    }
  ],
  "accessors": [
    {
      "bufferView": 0,
      "componentType": 5126,
      "count": 21,
      "type": "SCALAR",
      "max": [1.0],
      "min": [0.0]
    },
    {
      "bufferView": 1,
      "componentType": 5126,
      "count": 21,
      "type": "VEC4"
    },
    {
      "bufferView": 2,
      "componentType": 5126,
      "count": 21,
      "type": "VEC4"
    }
  ],
  "animations": [
    {
      "name": "cast",
      "samplers": [
        {
          "input": 0,
          "output": 1,
          "interpolation": "LINEAR"
        },
        {
          "input": 0,
          "output": 2,
          "interpolation": "LINEAR"
        }
      ],
      "channels": [
        {
          "sampler": 0,
          "target": {
            "node": 0,
            "path": "rotation"
          }
        },
        {
          "sampler": 1,
          "target": {
            "node": 1,
            "path": "rotation"
          }
        }
      ]
    }
  ]
}
